<svg id="Layer_1" data-name="Layer 1" xmlns="http://www.w3.org/2000/svg" viewBox="0 0 1176.9 191.67"><defs><style>.cls-1{fill:#fff;}.cls-1,.cls-2{stroke:#000;stroke-miterlimit:10;stroke-width:2px;}.cls-2{fill:none;}</style></defs><title>skyline</title><path class="cls-1" d="M1018.88,190.67V171.14c0-.19-.14,0-.32,0l-11.22-7c-.17,0-.33-23.94-.33-23.94v9.54h-2.62V138.48a.32.32,0,0,0-.32-.32H991.63v-15a.32.32,0,0,0-.32-.32H989.5v-5.76a.33.33,0,0,0-.34-.32H984a.32.32,0,0,0-.32.32v2.3H978.6a.32.32,0,0,0-.32.32v3.14h-1.63a.33.33,0,0,0-.32.32v15h-4.2V121.6a.32.32,0,0,0-.32-.33H958.52a.32.32,0,0,0-.32.33v20.89h-7.14a.33.33,0,0,0-.34.32v2.49h-2.38v-1.13a.33.33,0,0,0-.32-.32h-4.21V133a.33.33,0,0,0-.32-.32H923.72V113.39a.32.32,0,0,0-.32-.33H909.8a.32.32,0,0,0-.33.33v26.48h-11V121.6a.32.32,0,0,0-.33-.33H884.73a.32.32,0,0,0-.32.33V124l-3.18,3.68a.29.29,0,0,0-.08.21v14.59h-2.5a.32.32,0,0,0-.32.32v10.7h-7.57v-10.7a.32.32,0,0,0-.32-.32h-10a.33.33,0,0,0-.34.32v3.88h-6.91a.32.32,0,0,0-.32.32v8.63h-4.22a.34.34,0,0,0-.32.32v12H836.42v-6.82a.32.32,0,0,0-.32-.33h-2.28l0-.35c-.63-7.25-2.3-26.5-2.83-37.4-.38-7.72-1-21.52-1.39-31.6-.25-5.92-.44-10.66-.53-12.41,3-.56,5-1.86,5-3.33a2.05,2.05,0,0,0-.49-1.27H834a.33.33,0,0,0,.33-.32v-5.8a.33.33,0,0,0-.33-.32h-1.9v-3a.32.32,0,0,0-.32-.32h-3.82V63.33h.87a.32.32,0,0,0,.33-.32V60.36a.32.32,0,0,0-.33-.32h-.87V22.73a.33.33,0,0,0-.33-.33h-.7V10a.34.34,0,0,0-.32-.32h-.17V1.32a.32.32,0,0,0-.32-.32H826a.32.32,0,0,0-.33.32V9.67h-.16a.33.33,0,0,0-.33.32V22.43h-.7a.32.32,0,0,0-.33.32V60h-.87a.32.32,0,0,0-.32.32v2.69a.32.32,0,0,0,.32.32h.87v1.42H820.3a.32.32,0,0,0-.32.32v3h-1.91a.32.32,0,0,0-.32.32V74.2a.32.32,0,0,0,.32.32h.39a2,2,0,0,0-.46,1.26c0,1.56,2.1,2.89,5.37,3.42V144H823v-3.78a.33.33,0,0,0-.33-.33h-1v-3.13a.35.35,0,0,0-.32-.33h-5a.34.34,0,0,0-.32.33v3.13h-1.36a.35.35,0,0,0-.33.33V147h-.74a.32.32,0,0,0-.32.32V162h-2.4v-3.17a.32.32,0,0,0-.32-.32h-9.3a.32.32,0,0,0-.32.32v3.14h-2.3a.32.32,0,0,0-.32.32V168H795V156.52a.32.32,0,0,0-.32-.33H792v-2.36a.32.32,0,0,0-.32-.32h-4.11a.32.32,0,0,0-.32.32v2.36h-2.17v-2.36a.32.32,0,0,0-.32-.32h-8.44a.32.32,0,0,0-.32.32V165a43.72,43.72,0,0,0-10.16-3.87V156a.33.33,0,0,0-.32-.32H759v-1.39a.32.32,0,0,0-.32-.32h-3.46a.32.32,0,0,0-.32.32v1.39h-3.14a.35.35,0,0,0-.33.32v3.37h-.15c-2.17,0-4.24.14-5.88.26V156a.35.35,0,0,0-.33-.32h-6v-1.39a.32.32,0,0,0-.32-.32h-3.69a.32.32,0,0,0-.33.32v1.39H731a.35.35,0,0,0-.33.32V163c-8.54,3.46-14.18,8.78-15.48,14.66h-.61a.32.32,0,0,0-.33.33v12.65"/><path d="M517,151.45h-8a1,1,0,0,0-1,1c0,.37,0,.73,0,1.08,0,.84,0,1.64,0,2.4-.94,0-1.9,0-2.92,0h-.22v-.51c0-1.16,0-2.25,0-3.34a2.15,2.15,0,0,0-.5-1.65,2.3,2.3,0,0,0-1.65-.56c-3.26,0-6.51,0-9.77,0h-3.09V139.76c0-.42,0-.76,0-1.1a5,5,0,0,0-4.68-4.57h-27a1,1,0,0,0-1,1v8.63h-8a1,1,0,0,0-1,1v7.35h-3V120a1,1,0,0,0-1-1h-1.64c-1.16,0-2.27,0-3.39,0l-.81,0h0c0-.28,0-.64,0-.91V98.64c0-.31,0-.62,0-1l0-.49a1,1,0,0,0-1-1h-3.6v-.12a2.15,2.15,0,0,0-.41-1.9,2.47,2.47,0,0,0-2-.65c-.74,0-1.49,0-2.23,0h-1.76v0a20,20,0,0,0-.13-2.39q-.66-6.87-1.35-13.72c-.12-1.26-.26-2.51-.41-3.76L425.15,72a1,1,0,0,0-.89-.89,1,1,0,0,0-1.05.69,21.2,21.2,0,0,0-.82,4.31q-.94,8.7-1.86,17.4v0h0c-.62,0-1.24,0-1.86,0h-.81c-2.39,0-2.87.39-3,2.69H411a1,1,0,0,0-1,1v43.52h-3.37c0-.16,0-.32,0-.48v-3.46q0-6.3,0-12.61a2,2,0,0,0-2.31-2.28c-5.39,0-10.25,0-14.86,0a2.35,2.35,0,0,0-1.77.57,2.4,2.4,0,0,0-.56,1.83c0,2.48,0,5,0,7.43v2.27c0,.12,0,.23,0,.34h-.26q-.47,0-.78,0a2.22,2.22,0,0,0-1.75.44c-.46.46-.46,1-.46,1.95v3.92h-2.39a1,1,0,0,0-1,1v.78c0,.57,0,1.1,0,1.63v0h-.06l-.94,0c-1.21,0-2.46-.05-3.71,0h-.41a2.71,2.71,0,0,1,0-.56q.06-14.88,0-29.76v-9.57a1,1,0,0,0-1-1H354.21a1,1,0,0,0-1,1v23.51c0,3,0,6,0,9a1.78,1.78,0,0,1,0,.25h-.1a20.08,20.08,0,0,0-3.29,0h-.32a2.24,2.24,0,0,1,0-.41c.05-1.32,0-2.62,0-4,0-.57,0-1.15,0-1.74a1,1,0,0,0-1-1H334.3V105.14a1,1,0,0,0-1-1h-4.71V99.67c0-3.92,0-7.84,0-11.75a2.37,2.37,0,0,0-.6-1.79,2.25,2.25,0,0,0-1.76-.51,11.07,11.07,0,0,1-1.27,0V71.76a1,1,0,0,0-.94-1l-1.24-.07-1.24-15.57a1,1,0,0,0-1-.92h-.32a1,1,0,0,0-1,.92L318,70.64h-5.33L311.41,55.1a1,1,0,0,0-1-.91,1,1,0,0,0-1,.86c-.71,5-1.13,10-1.5,14.65v.1c0,.33-.06.67-.09.86-.21,0-.6.07-.95.1a1.36,1.36,0,0,0-.63.23l-.1.07a1,1,0,0,0-.5.86v12.4c0,.49,0,1,0,1.26-.27,0-.83,0-1.25,0a2.47,2.47,0,0,0-1.73.57,2.4,2.4,0,0,0-.56,1.74c0,3.94,0,7.88,0,11.82v4.49h-4.79a1,1,0,0,0-1,1v23.3H294V110.68a1,1,0,0,0-1-1h-2.66V98.59a1,1,0,0,0-.63-.93l-.13,0a1.53,1.53,0,0,0-.64-.18l-4,0a11.73,11.73,0,0,1-1.91-.07,8.15,8.15,0,0,1-.16-2,1,1,0,0,0-1-1,1,1,0,0,0-1,1,1.62,1.62,0,0,0,0,.22c.09,3.37.59,3.8,4.07,3.8l3.37,0v11.25a1,1,0,0,0,1,1H292v17.85a1,1,0,0,0,1,1h4.3a1,1,0,0,0,1-1v-23.3h4.79a1,1,0,0,0,1-1V99.74c0-3.94,0-7.89,0-11.83,0-.13,0-.22,0-.29h.28c1.26,0,2.11,0,2.7-.58s.58-1.38.58-2.71V72.69c1.76-.21,2.1-.72,2.26-2.73v-.1c.11-1.38.22-2.78.34-4.2l.5,6.06a1,1,0,0,0,1,.92h7.18a1,1,0,0,0,1-.92l.47-5.92.47,5.92a1,1,0,0,0,.94.91l1.17.07V86.53a1,1,0,0,0,.95,1l.76,0a11.68,11.68,0,0,0,1.67,0h.24c0,.06,0,.16,0,.29,0,3.92,0,7.85,0,11.78v5.46a1,1,0,0,0,1,1h4.71v24.69a1,1,0,0,0,1,1h14.22c0,.25,0,.51,0,.76,0,1.35,0,2.62,0,3.9a2.46,2.46,0,0,0,.61,2A2.37,2.37,0,0,0,350,139a18.16,18.16,0,0,1,2.95,0,2.16,2.16,0,0,0,1.69-.46,2.29,2.29,0,0,0,.59-1.79c0-3,0-6,0-8.95V105.27h18.17v8.57q0,14.88,0,29.76a2.66,2.66,0,0,0,.66,2,2.48,2.48,0,0,0,1.94.51c1.15-.08,2.36-.05,3.52,0l.95,0a2,2,0,0,0,1.58-.56,2,2,0,0,0,.51-1.55c0-.43,0-.87,0-1.33h2.4a1,1,0,0,0,1-1v-5.31h.18c.24,0,.51,0,.84,0h1.17a1,1,0,0,0,1-.94l0-.45c0-.33.05-.64.05-.94v-2.27c0-2.45,0-5,0-7.47,0-.17,0-.29,0-.36h.3c4.62,0,9.49,0,14.9,0h.28c0,.06,0,.14,0,.26q0,6.32,0,12.63v3.46c0,.33,0,.66,0,1l0,.5a1,1,0,0,0,1,.95H411a1,1,0,0,0,1-1V98.26h3.61a1,1,0,0,0,1-.8l.06-.29a2.86,2.86,0,0,0,.1-.57c0-.39.05-.78.09-1,.22,0,.6,0,1,0h.83c.59,0,1.19,0,1.78,0a1.87,1.87,0,0,0,2.1-1.84q.72-6.92,1.47-13.84.57,5.73,1.12,11.45a17.22,17.22,0,0,1,.12,2.15,1.87,1.87,0,0,0,2.09,2.08H429c.78,0,1.56,0,2.33,0a2.5,2.5,0,0,1,.43,0,1,1,0,0,1,0,.22,4.18,4.18,0,0,0,0,1.06c0,.14,0,.28,0,.43a1,1,0,0,0,1,1h3.59c0,.14,0,.27,0,.41v19.43c0,1.3,0,2,.52,2.52a2,2,0,0,0,1.6.4l.71,0h4.05v32.09a1,1,0,0,0,1,1h5a1,1,0,0,0,1-1v-7.35h8a1,1,0,0,0,1-1v-8.63h26a3,3,0,0,1,2.68,2.62c0,.32,0,.64,0,1v11.1a1,1,0,0,0,1,1l.5,0,.94,0h2.7c3.26,0,6.53,0,9.79,0h.14V152c-.05,1.14,0,2.25,0,3.43,0,.49,0,1,0,1.5a1,1,0,0,0,1,1H505c1.14,0,2.22,0,3.31,0a2,2,0,0,0,1.61-1.75c.06-.87.05-1.73,0-2.64v-.07h6v37.21h2V152.45A1,1,0,0,0,517,151.45ZM277,95.6h0a1,1,0,0,0-1-1h0a1,1,0,0,0-1,1c0,2.53,0,5.06,0,7.59q0,3.17,0,6.33v.18h-2.86a1,1,0,0,0-1,1V118c0,.53,0,1.06,0,1.59a2.43,2.43,0,0,0,0,.37v5.5a4.64,4.64,0,0,0,0,.53c0,.21,0,.41,0,.62v2l-.33,0a2.37,2.37,0,0,0-1.91.44,2.45,2.45,0,0,0-.65,1.93c.06,3.11.05,6.27,0,9.33v3.13c0,.13,0,.25,0,.38h-6a1,1,0,0,0-1,1V148c0,1.49,0,3,0,4.47v0c-1.76-.06-3.19-.06-4.51,0h-.23a1,1,0,0,1,0-.26c0-2.37,0-4.75,0-7.13V144c0-2.19,0-4.39,0-6.58a6.11,6.11,0,0,0,0-.75l-.05-16.45a1,1,0,0,0-1.39-.92l-.72.29c-.51.21-1,.41-1.46.63l-6,2.88c-3.9,1.89-7.79,3.78-11.7,5.64a3,3,0,0,0-2,3.19c.08,1.16.06,2.36,0,3.53,0,.52,0,1,0,1.56v3.19h-9.13a1,1,0,0,0-1,.95l0,.55c0,.37,0,.7,0,1v2.08c0,2.39,0,4.86,0,7.3a1,1,0,0,1,0,.19H223c-2.63-.07-5-.07-7.38,0a1.44,1.44,0,0,1-.32,0,2,2,0,0,1,0-.31c0-3.63,0-7.32,0-10.89v-7.4c0-3.27,0-6.53,0-9.8a2.21,2.21,0,0,0-.58-1.77,1.77,1.77,0,0,0-1.44-.4h-.21a2,2,0,0,1,0-.49c.05-1.1,0-2.18,0-3.31,0-.47,0-1,0-1.43a1,1,0,0,0-1-1h-9a4.48,4.48,0,0,0-5,5v.23a6.26,6.26,0,0,0,0,.75,1.53,1.53,0,0,1,0,.27.65.65,0,0,1-.18,0,2.18,2.18,0,0,0-1.85.41,2.51,2.51,0,0,0-.68,2c0,3.17,0,6.41,0,9.54v4.06H183.16V114.62a1,1,0,0,0-1-1h-8a1,1,0,0,0-1,1c0,.55,0,1.1,0,1.64,0,1.32,0,2.58,0,3.86v.16H173c-.61,0-1.21,0-1.81,0s-1.2,0-1.79,0a2,2,0,0,0-1.54.51,2.08,2.08,0,0,0-.52,1.56c0,.9,0,1.8,0,2.7v3.87c0,.3,0,.6,0,.82v5.82a3,3,0,0,0,0,.94v2.18a1.15,1.15,0,0,0-.08.49c0,.25,0,.49.08.73v10.9h-.23c-1.19-.06-2.35-.05-3.58,0H162a1,1,0,0,0-1,1v6.92h-4a1,1,0,0,0-1,1v31h2v-30h4a1,1,0,0,0,1-1v-6.92h.6c1.2,0,2.34,0,3.47,0a1.93,1.93,0,0,0,2.32-1.82V139.84a.49.49,0,0,0,0-.12c0-.11,0-.23,0-.35a1,1,0,0,0,0-.3v-2.66a.55.55,0,0,0,0-.18,1.14,1.14,0,0,1,0-.37,1.49,1.49,0,0,0,0-.21v-6c0-.25,0-.49,0-.75v-3.88c0-.92,0-1.83,0-2.75v0h0q.93,0,1.86,0t1.74,0a1.94,1.94,0,0,0,2.21-2.23c0-1.24,0-2.47,0-3.78,0-.21,0-.43,0-.65h6v23a1,1,0,0,0,1,1l.49,0c.33,0,.61,0,.89,0h11.28c2.26,0,2.71-.44,2.71-2.66v-3.4c0-3.13,0-6.38,0-9.57a4.09,4.09,0,0,1,0-.45l.21,0a2.17,2.17,0,0,0,1.93-.48,2.28,2.28,0,0,0,.52-2,2.77,2.77,0,0,1,0-.41c0-.1,0-.2,0-.3a3.15,3.15,0,0,1,.7-2.27,3.06,3.06,0,0,1,2.25-.7h8v.45c0,1.11,0,2.16,0,3.21a2.53,2.53,0,0,0,.61,2.06,2.22,2.22,0,0,0,1.63.51v.16c0,3.27,0,6.53,0,9.8v7.4c0,3.57,0,7.25,0,10.87a2,2,0,0,0,2.4,2.34c2.3-.07,4.68-.07,7.26,0a1.94,1.94,0,0,0,2.27-2.22c0-2.42,0-4.88,0-7.26v-2.09c0-.17,0-.35,0-.53h9.18a1,1,0,0,0,1-1V137c0-.51,0-1,0-1.53,0-1.21,0-2.45,0-3.69,0-.63.07-.87.87-1.26,3.91-1.86,7.81-3.75,11.71-5.64l6-2.88.7-.31.05,15a.49.49,0,0,0,0,.12,3.41,3.41,0,0,1,0,.56q0,3.28,0,6.59v1.18c0,2.36,0,4.73,0,7.1a2.35,2.35,0,0,0,.58,1.77,2.31,2.31,0,0,0,1.76.51c1.27-.06,2.65-.07,4.35,0a2,2,0,0,0,1.53-.49,2.1,2.1,0,0,0,.53-1.57c0-1.48,0-3,0-4.43v-2.21h5.91a1,1,0,0,0,1-.95l0-.49c0-.34,0-.64,0-.94v-3.12c0-3.07,0-6.25,0-9.37a2.74,2.74,0,0,1,0-.37,1.11,1.11,0,0,1,.29,0,7.45,7.45,0,0,0,1.06,0h.52a1,1,0,0,0,1-1v-3c0-.22,0-.45,0-.67a2.83,2.83,0,0,1,0-.4v-5.74a1,1,0,0,1,0-.17c0-.54,0-1.07,0-1.62v-6.29h2.3a.94.94,0,0,0,.3,0c.85-.26,1.27-1,1.26-2.15q0-3.15,0-6.31C277,100.67,277,98.14,277,95.6Z"/><polyline class="cls-2" points="281.84 95.6 280.91 95.6 277.01 95.6 275.74 95.6"/><polyline class="cls-2" points="0 190.67 156.02 190.67 158.02 190.67"/><polyline class="cls-2" points="1018.88 190.67 1174.9 190.67 1176.9 190.67"/><polyline class="cls-2" points="515.64 190.67 517.95 190.67 714.21 190.67"/><line class="cls-2" x1="1018.88" y1="190.67" x2="1176.9" y2="190.67"/></svg>